#Comment line ignore any data following # character 
#Hierarchical Translation and Rotation (.htr) file 
[Header]	
#Header keywords are followed by a single value 
FileType HTR		#Single word string
DataType HTRS		#Translation followed by rotation and scale data
FileVersion 1		#integer
NumSegments 84		#integer
NumFrames 2		#integer
DataFrameRate 30		#integer, data frame rate in this file
EulerRotationOrder ZYX
CalibrationUnits mm
RotationUnits Degrees
GlobalAxisofGravity Y
BoneLengthAxis Y
ScaleFactor 1.00
[SegmentNames&Hierarchy]
#CHILD	PARENT
MASTER GLOBAL
root MASTER
chest root
L_mid_tent01 root
R_mid_tent01 root
spine01 root
Bip01_Neck chest
L_humerus chest
R_humerus chest
weapon_bone chest
Bip01_Head Bip01_Neck
eye_left_bone Bip01_Head
eye_right_bone Bip01_Head
L_forearm L_humerus
L_front_hand L_forearm
L_weapon_bone L_forearm
L_front_hand01_01 L_front_hand
L_front_hand02_01 L_front_hand
L_front_hand03_01 L_front_hand
L_front_hand01_02 L_front_hand01_01
L_front_hand02_02 L_front_hand02_01
L_front_hand03_02 L_front_hand03_01
R_forearm R_humerus
R_front_hand R_forearm
R_weapon_bone R_forearm
R_front_hand01_01 R_front_hand
R_front_hand02_01 R_front_hand
R_front_hand03_01 R_front_hand
R_front_hand01_02 R_front_hand01_01
R_front_hand02_02 R_front_hand02_01
R_front_hand03_02 R_front_hand03_01
null_rope01_connect L_mid_tent01
Rope1_Seg01 null_rope01_connect
Rope1_Seg02 Rope1_Seg01
Rope1_Seg03 Rope1_Seg02
Rope1_Seg04 Rope1_Seg03
Rope1_Seg05 Rope1_Seg04
Rope1_Seg06 Rope1_Seg05
Rope1_Seg07 Rope1_Seg06
Rope1_Seg09 Rope1_Seg07
L_mid_hand01 Rope1_Seg09
L_mid_hand02 Rope1_Seg09
L_mid_hand03 Rope1_Seg09
null_rope02_connect R_mid_tent01
Rope2_Seg01 null_rope02_connect
Rope2_Seg02 Rope2_Seg01
Rope2_Seg03 Rope2_Seg02
Rope2_Seg04 Rope2_Seg03
Rope2_Seg05 Rope2_Seg04
Rope2_Seg06 Rope2_Seg05
Rope2_Seg07 Rope2_Seg06
Rope2_Seg09 Rope2_Seg07
R_mid_hand01 Rope2_Seg09
R_mid_hand02 Rope2_Seg09
R_mid_hand03 Rope2_Seg09
spine02 spine01
spine03 spine02
pelvis spine03
null_rope03_connect pelvis
null_rope04_connect pelvis
Rope3_Seg01 null_rope03_connect
Rope3_Seg02 Rope3_Seg01
Rope3_Seg03 Rope3_Seg02
Rope3_Seg04 Rope3_Seg03
Rope3_Seg05 Rope3_Seg04
Rope3_Seg06 Rope3_Seg05
Rope3_Seg07 Rope3_Seg06
Rope3_Seg08 Rope3_Seg07
Rope3_Seg09 Rope3_Seg08
R_rear_hand01 Rope3_Seg09
R_rear_hand02 Rope3_Seg09
R_rear_hand03 Rope3_Seg09
Rope4_Seg01 null_rope04_connect
Rope4_Seg02 Rope4_Seg01
Rope4_Seg03 Rope4_Seg02
Rope4_Seg04 Rope4_Seg03
Rope4_Seg05 Rope4_Seg04
Rope4_Seg06 Rope4_Seg05
Rope4_Seg07 Rope4_Seg06
Rope4_Seg08 Rope4_Seg07
Rope4_Seg09 Rope4_Seg08
L_rear_hand01 Rope4_Seg09
L_rear_hand02 Rope4_Seg09
L_rear_hand03 Rope4_Seg09
[BasePosition]
#SegmentName Tx, Ty, Tz, Rx, Ry, Rz, BoneLength
MASTER 0.000000 0.000000 0.000000 -90.000000 0.000000 0.000000 10.000000 
root 0.000000 0.000000 0.000000 0.000000 0.000000 0.000000 10.000000 
chest 0.000000 0.000000 0.000000 0.000000 0.000000 0.000000 10.000000 
L_mid_tent01 0.000000 0.000000 0.000000 0.000000 0.000000 0.000000 10.000000 
R_mid_tent01 0.000000 0.000000 0.000000 0.000000 0.000000 0.000000 10.000000 
spine01 0.000000 0.000000 0.000000 0.000000 0.000000 0.000000 10.000000 
Bip01_Neck 0.000000 0.000000 0.000000 0.000000 0.000000 0.000000 10.000000 
L_humerus 0.000000 0.000000 0.000000 0.000000 0.000000 0.000000 10.000000 
R_humerus 0.000000 0.000000 0.000000 0.000000 0.000000 0.000000 10.000000 
weapon_bone 0.000000 0.000000 0.000000 0.000000 0.000000 0.000000 10.000000 
Bip01_Head 0.000000 0.000000 0.000000 0.000000 0.000000 0.000000 10.000000 
eye_left_bone 0.000000 0.000000 0.000000 0.000000 0.000000 0.000000 10.000000 
eye_right_bone 0.000000 0.000000 0.000000 0.000000 0.000000 0.000000 10.000000 
L_forearm 0.000000 0.000000 0.000000 0.000000 0.000000 0.000000 10.000000 
L_front_hand 0.000000 0.000000 0.000000 0.000000 0.000000 0.000000 10.000000 
L_weapon_bone 0.000000 0.000000 0.000000 0.000000 0.000000 0.000000 10.000000 
L_front_hand01_01 0.000000 0.000000 0.000000 0.000000 0.000000 0.000000 10.000000 
L_front_hand02_01 0.000000 0.000000 0.000000 0.000000 0.000000 0.000000 10.000000 
L_front_hand03_01 0.000000 0.000000 0.000000 0.000000 0.000000 0.000000 10.000000 
L_front_hand01_02 0.000000 0.000000 0.000000 0.000000 0.000000 0.000000 10.000000 
L_front_hand02_02 0.000000 0.000000 0.000000 0.000000 0.000000 0.000000 10.000000 
L_front_hand03_02 0.000000 0.000000 0.000000 0.000000 0.000000 0.000000 10.000000 
R_forearm 0.000000 0.000000 0.000000 0.000000 0.000000 0.000000 10.000000 
R_front_hand 0.000000 0.000000 0.000000 0.000000 0.000000 0.000000 10.000000 
R_weapon_bone 0.000000 0.000000 0.000000 0.000000 0.000000 0.000000 10.000000 
R_front_hand01_01 0.000000 0.000000 0.000000 0.000000 0.000000 0.000000 10.000000 
R_front_hand02_01 0.000000 0.000000 0.000000 0.000000 0.000000 0.000000 10.000000 
R_front_hand03_01 0.000000 0.000000 0.000000 0.000000 0.000000 0.000000 10.000000 
R_front_hand01_02 0.000000 0.000000 0.000000 0.000000 0.000000 0.000000 10.000000 
R_front_hand02_02 0.000000 0.000000 0.000000 0.000000 0.000000 0.000000 10.000000 
R_front_hand03_02 0.000000 0.000000 0.000000 0.000000 0.000000 0.000000 10.000000 
null_rope01_connect 0.000000 0.000000 0.000000 0.000000 0.000000 0.000000 10.000000 
Rope1_Seg01 0.000000 0.000000 0.000000 0.000000 0.000000 0.000000 10.000000 
Rope1_Seg02 0.000000 0.000000 0.000000 0.000000 0.000000 0.000000 10.000000 
Rope1_Seg03 0.000000 0.000000 0.000000 0.000000 0.000000 0.000000 10.000000 
Rope1_Seg04 0.000000 0.000000 0.000000 0.000000 0.000000 0.000000 10.000000 
Rope1_Seg05 0.000000 0.000000 0.000000 0.000000 0.000000 0.000000 10.000000 
Rope1_Seg06 0.000000 0.000000 0.000000 0.000000 0.000000 0.000000 10.000000 
Rope1_Seg07 0.000000 0.000000 0.000000 0.000000 0.000000 0.000000 10.000000 
Rope1_Seg09 0.000000 0.000000 0.000000 0.000000 0.000000 0.000000 10.000000 
L_mid_hand01 0.000000 0.000000 0.000000 0.000000 0.000000 0.000000 10.000000 
L_mid_hand02 0.000000 0.000000 0.000000 0.000000 0.000000 0.000000 10.000000 
L_mid_hand03 0.000000 0.000000 0.000000 0.000000 0.000000 0.000000 10.000000 
null_rope02_connect 0.000000 0.000000 0.000000 0.000000 0.000000 0.000000 10.000000 
Rope2_Seg01 0.000000 0.000000 0.000000 0.000000 0.000000 0.000000 10.000000 
Rope2_Seg02 0.000000 0.000000 0.000000 0.000000 0.000000 0.000000 10.000000 
Rope2_Seg03 0.000000 0.000000 0.000000 0.000000 0.000000 0.000000 10.000000 
Rope2_Seg04 0.000000 0.000000 0.000000 0.000000 0.000000 0.000000 10.000000 
Rope2_Seg05 0.000000 0.000000 0.000000 0.000000 0.000000 0.000000 10.000000 
Rope2_Seg06 0.000000 0.000000 0.000000 0.000000 0.000000 0.000000 10.000000 
Rope2_Seg07 0.000000 0.000000 0.000000 0.000000 0.000000 0.000000 10.000000 
Rope2_Seg09 0.000000 0.000000 0.000000 0.000000 0.000000 0.000000 10.000000 
R_mid_hand01 0.000000 0.000000 0.000000 0.000000 0.000000 0.000000 10.000000 
R_mid_hand02 0.000000 0.000000 0.000000 0.000000 0.000000 0.000000 10.000000 
R_mid_hand03 0.000000 0.000000 0.000000 0.000000 0.000000 0.000000 10.000000 
spine02 0.000000 0.000000 0.000000 0.000000 0.000000 0.000000 10.000000 
spine03 0.000000 0.000000 0.000000 0.000000 0.000000 0.000000 10.000000 
pelvis 0.000000 0.000000 0.000000 0.000000 0.000000 0.000000 10.000000 
null_rope03_connect 0.000000 0.000000 0.000000 0.000000 0.000000 0.000000 10.000000 
null_rope04_connect 0.000000 0.000000 0.000000 0.000000 0.000000 0.000000 10.000000 
Rope3_Seg01 0.000000 0.000000 0.000000 0.000000 0.000000 0.000000 10.000000 
Rope3_Seg02 0.000000 0.000000 0.000000 0.000000 0.000000 0.000000 10.000000 
Rope3_Seg03 0.000000 0.000000 0.000000 0.000000 0.000000 0.000000 10.000000 
Rope3_Seg04 0.000000 0.000000 0.000000 0.000000 0.000000 0.000000 10.000000 
Rope3_Seg05 0.000000 0.000000 0.000000 0.000000 0.000000 0.000000 10.000000 
Rope3_Seg06 0.000000 0.000000 0.000000 0.000000 0.000000 0.000000 10.000000 
Rope3_Seg07 0.000000 0.000000 0.000000 0.000000 0.000000 0.000000 10.000000 
Rope3_Seg08 0.000000 0.000000 0.000000 0.000000 0.000000 0.000000 10.000000 
Rope3_Seg09 0.000000 0.000000 0.000000 0.000000 0.000000 0.000000 10.000000 
R_rear_hand01 0.000000 0.000000 0.000000 0.000000 0.000000 0.000000 10.000000 
R_rear_hand02 0.000000 0.000000 0.000000 0.000000 0.000000 0.000000 10.000000 
R_rear_hand03 0.000000 0.000000 0.000000 0.000000 0.000000 0.000000 10.000000 
Rope4_Seg01 0.000000 0.000000 0.000000 0.000000 0.000000 0.000000 10.000000 
Rope4_Seg02 0.000000 0.000000 0.000000 0.000000 0.000000 0.000000 10.000000 
Rope4_Seg03 0.000000 0.000000 0.000000 0.000000 0.000000 0.000000 10.000000 
Rope4_Seg04 0.000000 0.000000 0.000000 0.000000 0.000000 0.000000 10.000000 
Rope4_Seg05 0.000000 0.000000 0.000000 0.000000 0.000000 0.000000 10.000000 
Rope4_Seg06 0.000000 0.000000 0.000000 0.000000 0.000000 0.000000 10.000000 
Rope4_Seg07 0.000000 0.000000 0.000000 0.000000 0.000000 0.000000 10.000000 
Rope4_Seg08 0.000000 0.000000 0.000000 0.000000 0.000000 0.000000 10.000000 
Rope4_Seg09 0.000000 0.000000 0.000000 0.000000 0.000000 0.000000 10.000000 
L_rear_hand01 0.000000 0.000000 0.000000 0.000000 0.000000 0.000000 10.000000 
L_rear_hand02 0.000000 0.000000 0.000000 0.000000 0.000000 0.000000 10.000000 
L_rear_hand03 0.000000 0.000000 0.000000 0.000000 0.000000 0.000000 10.000000 
#Beginning of Data. Separated by tabs
#Fr	Tx	Ty	Tz	Rx	Ry	Rz	SF
[MASTER]
9 -0.000249 1664.456543 383.883514 0.001660 0.001660 0.001660 1708.151611
10 -0.000288 1923.975830 497.753479 0.001660 0.001660 0.001660 1987.320190
[root]
9 -13.764310 -69.919121 1492.904663 -93.275093 -35.576160 -89.871170 1494.604370
10 -9.952696 -72.566071 1484.450439 -94.241295 -35.575077 -89.872826 1486.256470
[chest]
9 -84.512650 -34.090519 0.000000 -1.027559 0.554061 174.045685 91.129311
10 -84.512650 -34.090519 0.000000 -0.605131 0.521565 175.028442 91.129311
[L_mid_tent01]
9 27.299444 22.177546 -249.918274 0.251162 17.141659 69.647644 252.381149
10 27.299438 22.177551 -249.918274 0.520310 10.670815 70.509201 252.381149
[R_mid_tent01]
9 23.228794 24.509907 226.238495 169.100113 -20.501978 70.974823 228.744751
10 23.228794 24.509907 226.238495 168.622986 -18.794060 72.577217 228.744751
[spine01]
9 -0.361383 -0.195265 0.000000 0.001845 0.001451 13.654368 0.410763
10 -0.361383 -0.195265 0.000000 0.001845 0.001451 13.654368 0.410763
[Bip01_Neck]
9 165.484543 71.581718 0.000119 176.643677 -1.657967 43.431911 180.302734
10 165.484543 71.581718 0.000119 176.643677 -1.657967 43.431911 180.302734
[L_humerus]
9 -13.983130 -135.272980 -120.471481 153.213104 72.439407 -115.288063 181.680161
10 -13.983130 -135.272980 -120.471481 151.264175 73.572548 -117.324524 181.680161
[R_humerus]
9 -13.983309 -135.273102 125.287651 -171.993240 -68.080643 -92.975143 184.909012
10 -13.983309 -135.273102 125.287651 -171.713837 -68.852417 -93.274628 184.909012
[weapon_bone]
9 235.964890 -300.705902 0.000000 0.000000 -89.951546 -128.212341 382.234833
10 235.964890 -300.705902 0.000000 0.000000 -89.951546 -128.212341 382.234833
[Bip01_Head]
9 213.439285 185.729446 11.594661 4.967201 3.876737 -43.880585 283.171661
10 213.437256 185.735321 11.518709 4.967186 4.543053 -43.866879 283.170898
[eye_left_bone]
9 -24.626970 125.451866 -64.772606 0.000000 -90.000000 -99.840431 143.318359
10 -24.626970 125.451866 -64.772606 0.000000 -90.000000 -99.840431 143.318359
[eye_right_bone]
9 -24.626970 125.451866 64.327362 0.000000 -89.972023 80.156387 143.117676
10 -24.626970 125.451866 64.327362 0.000000 -89.965736 80.156380 143.117676
[L_forearm]
9 322.776093 0.000000 -0.000119 0.000119 -0.002344 -95.807457 322.776093
10 322.776093 0.000000 -0.000119 0.000119 -0.002344 -95.807457 322.776093
[L_front_hand]
9 241.149185 -0.042021 -3.300071 -178.667953 -1.835447 -27.422350 241.171753
10 241.149185 -0.042021 -3.300071 -178.667953 -1.835447 -27.422350 241.171753
[L_weapon_bone]
9 156.183838 0.000000 0.000000 0.000014 0.000007 0.000001 156.183838
10 156.183838 0.000000 0.000000 0.000014 0.000007 0.000001 156.183838
[L_front_hand01_01]
9 86.095154 20.947098 -0.655860 -0.364720 -0.478588 74.936234 88.609184
10 86.095154 20.947098 -0.655860 -0.351864 -0.488251 73.756912 88.609184
[L_front_hand02_01]
9 86.935165 -11.437475 24.513514 153.708527 -59.690228 -60.568150 91.046425
10 86.935165 -11.437475 24.513514 151.937775 -59.151119 -58.507736 91.046425
[L_front_hand03_01]
9 86.637497 -14.123976 -20.424902 -153.279221 57.922546 -61.955151 90.126129
10 86.637497 -14.123976 -20.424902 -151.626480 57.374607 -59.999687 90.126129
[L_front_hand01_02]
9 71.020905 -0.000179 0.000030 0.000318 -0.002326 -105.568314 71.020905
10 71.020905 -0.000179 0.000030 0.000317 -0.002326 -105.537247 71.020905
[L_front_hand02_02]
9 71.020927 -0.000119 0.000060 0.000318 -0.002326 -105.568314 71.020927
10 71.020927 -0.000119 0.000060 0.000317 -0.002326 -105.537247 71.020927
[L_front_hand03_02]
9 71.020905 -0.000060 0.000060 0.000318 -0.002326 -105.568314 71.020905
10 71.020905 -0.000060 0.000060 0.000317 -0.002326 -105.537247 71.020905
[R_forearm]
9 322.776428 -0.000060 0.000030 0.209504 0.012586 -94.339050 322.776428
10 322.776428 -0.000060 0.000030 0.209504 0.012586 -94.339050 322.776428
[R_front_hand]
9 238.847015 -0.006795 2.210259 -2.635298 -10.645461 -26.312506 238.857239
10 238.847015 -0.006795 2.210259 -2.635298 -10.645462 -26.312506 238.857239
[R_weapon_bone]
9 155.664093 0.002503 -0.000030 0.003487 0.001180 -90.988930 155.664078
10 155.664093 0.002503 -0.000030 0.003487 0.001180 -90.988930 155.664078
[R_front_hand01_01]
9 87.624611 14.231146 22.918642 -153.951385 -59.756760 60.953682 91.683487
10 87.624611 14.231146 22.918642 -152.176025 -59.222912 58.891888 91.683487
[R_front_hand02_01]
9 89.356956 14.367283 -19.491137 153.963715 58.112652 62.995510 92.579636
10 89.356956 14.367283 -19.491137 152.293427 57.581059 61.021759 92.579636
[R_front_hand03_01]
9 87.286232 -22.307278 -0.143439 0.156617 -0.426811 -75.329918 90.091743
10 87.286232 -22.307278 -0.143439 0.152228 -0.428396 -74.153709 90.091743
[R_front_hand01_02]
9 71.020905 0.000060 0.000119 0.002323 -0.000334 106.381714 71.020905
10 71.020905 0.000060 0.000119 0.002323 -0.000334 106.381714 71.020905
[R_front_hand02_02]
9 71.020844 -0.000030 -0.000119 0.002323 -0.000334 106.381714 71.020836
10 71.020844 -0.000030 -0.000119 0.002323 -0.000334 106.381714 71.020836
[R_front_hand03_02]
9 71.020905 0.000000 0.000030 0.002323 -0.000334 106.381714 71.020905
10 71.020905 0.000000 0.000030 0.002323 -0.000334 106.381714 71.020905
[null_rope01_connect]
9 328.732483 0.000000 -0.000238 -126.676498 -69.873222 -177.167862 328.732483
10 328.732483 0.000000 -0.000238 -128.616302 -75.404701 -176.106766 328.732483
[Rope1_Seg01]
9 0.000000 0.000000 0.000000 -82.966866 56.326035 -88.595909 0.000000
10 0.000000 0.000000 0.000000 -90.116631 54.287155 -95.295219 0.000000
[Rope1_Seg02]
9 139.999863 -0.000179 0.000000 -10.874971 1.768088 16.492172 139.999863
10 139.999863 -0.000179 0.000000 -12.429491 1.586863 16.928013 139.999863
[Rope1_Seg03]
9 139.999924 0.000060 -0.000060 -7.598978 -1.365762 22.966574 139.999924
10 139.999924 0.000060 -0.000060 -8.201885 -2.294048 22.778608 139.999924
[Rope1_Seg04]
9 139.999924 -0.000060 -0.000119 -2.686308 -3.122175 21.343378 139.999924
10 139.999924 -0.000060 -0.000119 -3.194480 -4.036044 20.791407 139.999924
[Rope1_Seg05]
9 139.999832 0.000119 -0.000060 -0.325170 -5.795968 10.063826 139.999832
10 139.999832 0.000119 -0.000060 -0.397120 -5.629792 8.699893 139.999832
[Rope1_Seg06]
9 139.999954 0.000119 -0.000060 -0.716580 -6.914366 5.725485 139.999954
10 139.999954 0.000119 -0.000060 -0.622530 -6.424355 3.702846 139.999954
[Rope1_Seg07]
9 139.999985 0.000060 0.000000 -0.018640 -4.281301 5.443506 139.999985
10 139.999985 0.000060 0.000000 -0.256432 -4.255907 4.278307 139.999985
[Rope1_Seg09]
9 121.602913 0.000119 -0.000089 -89.793175 -1.359789 0.847147 121.602913
10 121.602913 0.000119 -0.000089 -89.793175 -1.359789 0.847147 121.602913
[L_mid_hand01]
9 103.859421 1.038730 8.195221 122.214584 -62.281197 -29.682938 104.187431
10 103.859421 1.038730 8.195221 118.511871 -58.710987 -25.432119 104.187431
[L_mid_hand02]
9 105.572853 -4.139662 -10.864139 -163.055786 41.815422 -64.846161 106.211075
10 105.572853 -4.139662 -10.864139 -159.626373 40.490181 -59.638344 106.211075
[L_mid_hand03]
9 104.641464 17.579376 -3.913581 -8.059160 17.002192 68.062866 106.179977
10 104.641464 17.579376 -3.913581 -9.285491 16.381809 63.801434 106.179977
[null_rope02_connect]
9 328.732849 0.000179 -0.000119 -90.316406 68.832954 33.596107 328.732849
10 328.732849 0.000179 -0.000119 -85.914757 70.515846 39.815086 328.732849
[Rope2_Seg01]
9 0.000070 0.000125 0.000027 -147.013458 33.098858 -40.273460 0.000146
10 0.000069 0.000122 0.000031 -137.597107 32.628284 -37.862762 0.000143
[Rope2_Seg02]
9 139.999741 -0.000060 -0.000119 -0.110725 -9.586842 4.240431 139.999756
10 139.999741 -0.000060 -0.000119 -4.245289 -6.807032 4.856350 139.999756
[Rope2_Seg03]
9 140.000107 0.000030 0.000000 -0.288835 -16.427790 6.963377 140.000107
10 140.000107 0.000030 0.000000 -3.100131 -11.935292 7.259432 140.000107
[Rope2_Seg04]
9 139.999802 0.000000 -0.000060 -0.196978 -24.889019 8.663264 139.999802
10 139.999802 0.000000 -0.000060 -0.799769 -18.365507 7.927549 139.999802
[Rope2_Seg05]
9 139.999985 -0.000060 0.000119 -4.636356 -20.331486 19.185593 139.999985
10 139.999985 -0.000060 0.000119 -7.790157 -26.994915 22.844076 139.999985
[Rope2_Seg06]
9 139.999893 -0.000030 -0.000119 0.293133 -7.100467 8.340417 139.999893
10 139.999893 -0.000030 -0.000119 -0.385348 -10.480366 9.035572 139.999893
[Rope2_Seg07]
9 139.999893 0.000060 -0.000060 0.328686 -3.506126 3.223087 139.999893
10 139.999893 0.000060 -0.000060 0.179120 -4.170026 3.148033 139.999893
[Rope2_Seg09]
9 121.338966 0.000089 -0.000060 33.793236 -1.359788 -0.847141 121.338966
10 121.338966 0.000089 -0.000060 33.793236 -1.359788 -0.847141 121.338966
[R_mid_hand01]
9 104.680779 11.144459 -10.335981 -19.035425 44.336292 66.455589 105.778534
10 104.680779 11.144459 -10.335981 -20.898426 43.633060 63.773407 105.778534
[R_mid_hand02]
9 104.070427 2.443552 8.231699 53.394081 -65.425781 34.575901 104.424065
10 104.070427 2.443552 8.231699 55.882156 -63.749565 31.819658 104.424065
[R_mid_hand03]
9 106.028137 -11.221827 -5.996406 -176.276184 15.379540 -73.491829 106.788818
10 106.028137 -11.221827 -5.996406 -175.717163 15.237030 -71.372292 106.788818
[spine02]
9 129.756927 0.001550 0.000119 -1.023899 -3.926965 6.770993 129.756927
10 129.756927 0.001550 0.000119 -1.023899 -3.926965 6.770993 129.756927
[spine03]
9 78.613937 0.087379 -4.898872 1.040680 4.146419 4.212376 78.766472
10 78.613953 0.087372 -4.898872 1.040681 4.146420 4.212376 78.766487
[pelvis]
9 169.435242 0.051022 0.000000 0.019518 -0.190233 -10.721436 169.435257
10 169.435242 0.051022 0.000000 0.019518 -0.190233 -10.721436 169.435257
[null_rope03_connect]
9 -1.257226 -2.466202 137.391083 -146.344208 -86.492393 -101.910255 137.418976
10 -1.257226 -2.466202 137.391083 -145.929703 -85.526611 -102.326485 137.418976
[null_rope04_connect]
9 -1.259640 -2.480268 -137.844437 -146.344208 -86.492393 -101.910255 137.872513
10 -1.259640 -2.480268 -137.844437 -145.929703 -85.526611 -102.326485 137.872513
[Rope3_Seg01]
9 -0.000016 -0.000171 -0.000153 -145.143646 -36.616787 -57.554440 0.000230
10 -0.000015 -0.000183 -0.000153 -145.965698 -37.109188 -56.563492 0.000239
[Rope3_Seg02]
9 139.999924 -0.000119 0.000060 -20.089531 0.776486 -34.659973 139.999924
10 139.999924 -0.000119 0.000060 -18.439442 -0.615476 -33.439411 139.999924
[Rope3_Seg03]
9 139.999924 -0.000119 0.000119 -13.117699 5.156844 -8.891006 139.999924
10 139.999924 -0.000119 0.000119 -11.578805 4.195213 -7.935522 139.999924
[Rope3_Seg04]
9 139.999924 0.000119 0.000000 -36.551380 10.058495 -20.085423 139.999924
10 139.999924 0.000119 0.000000 -31.060392 7.030245 -17.453169 139.999924
[Rope3_Seg05]
9 139.999924 -0.000238 0.000060 -58.047531 38.776157 -27.446894 139.999924
10 139.999924 -0.000238 0.000060 -66.558243 31.906235 -31.424000 139.999924
[Rope3_Seg06]
9 139.999893 -0.000119 -0.000060 -4.137680 16.947334 5.963141 139.999893
10 139.999893 -0.000119 -0.000060 -6.539192 19.691286 6.573633 139.999893
[Rope3_Seg07]
9 139.999771 0.000060 -0.000119 -0.513568 6.837140 3.072914 139.999771
10 139.999771 0.000060 -0.000119 -0.917447 7.543026 3.659270 139.999771
[Rope3_Seg08]
9 139.999985 -0.000060 0.000000 0.162613 3.417724 1.579988 139.999985
10 139.999985 -0.000060 0.000000 0.008791 3.726779 1.892283 139.999985
[Rope3_Seg09]
9 90.185997 -0.000179 -0.000060 89.793228 -1.359877 -0.847183 90.185997
10 90.185997 -0.000179 -0.000060 89.793228 -1.359877 -0.847183 90.185997
[R_rear_hand01]
9 103.366196 -6.073594 -10.757982 -176.027405 24.361643 -69.845345 104.101845
10 103.366196 -6.073594 -10.757982 -174.893967 24.166164 -67.090828 104.101845
[R_rear_hand02]
9 100.509819 12.039542 -7.992327 -15.526566 35.959644 67.697319 101.543350
10 100.509819 12.039542 -7.992327 -17.255272 35.248016 64.724976 101.543350
[R_rear_hand03]
9 101.539970 5.215704 5.435467 74.484848 -68.272499 18.324223 101.819031
10 101.539970 5.215704 5.435467 75.989647 -65.836792 16.686356 101.819031
[Rope4_Seg01]
9 -0.000070 -0.000157 0.000000 49.986950 -37.973610 -99.031998 0.000172
10 -0.000069 -0.000153 0.000000 48.933510 -36.345150 -97.389114 0.000167
[Rope4_Seg02]
9 139.999985 0.000060 0.000119 4.933986 -29.048470 8.927193 139.999985
10 139.999985 0.000060 0.000119 4.238713 -29.171326 8.923578 139.999985
[Rope4_Seg03]
9 139.999924 0.000000 -0.000238 21.352282 -32.430466 17.306128 139.999924
10 139.999924 0.000000 -0.000238 20.470087 -33.023540 17.801048 139.999924
[Rope4_Seg04]
9 139.999985 0.000000 0.000119 28.911095 -19.583647 23.237421 139.999985
10 139.999985 0.000000 0.000119 24.456093 -16.995918 18.862946 139.999985
[Rope4_Seg05]
9 139.999802 -0.000060 -0.000119 27.567656 -9.211586 55.828442 139.999802
10 139.999802 -0.000060 -0.000119 30.475294 -16.242048 54.240074 139.999802
[Rope4_Seg06]
9 139.999924 0.000000 0.000060 2.871555 6.234044 16.123751 139.999924
10 139.999924 0.000000 0.000060 5.236302 7.207294 21.504929 139.999924
[Rope4_Seg07]
9 139.999802 0.000000 0.000000 0.276582 2.207484 5.014559 139.999802
10 139.999802 0.000000 0.000000 0.454181 2.450396 5.638213 139.999802
[Rope4_Seg08]
9 139.999924 0.000000 0.000119 -1.502998 1.107838 2.485232 139.999924
10 139.999924 0.000000 0.000119 -1.444039 1.203661 2.727030 139.999924
[Rope4_Seg09]
9 90.185791 0.000060 0.000060 -135.617828 2.228885 0.850567 90.185791
10 90.185791 0.000060 0.000060 -135.617828 2.228885 0.850567 90.185791
[L_rear_hand01]
9 101.696655 -8.392275 -7.654577 -21.754822 -32.891220 123.292305 102.329041
10 101.696655 -8.392275 -7.654577 -25.776871 -29.993465 130.987762 102.329041
[L_rear_hand02]
9 102.726799 -1.568258 5.773216 78.924988 58.957436 166.614059 102.900848
10 102.726799 -1.568258 5.773216 80.757904 51.892082 168.841858 102.900848
[L_rear_hand03]
9 104.552910 9.721220 -10.420293 -171.809479 -23.347528 -120.557556 105.519653
10 104.552910 9.721220 -10.420293 -168.841812 -22.136347 -128.226929 105.519653
